M48
INCH,TZ
VER,1
FMAT,2
DETECT,ON
ATC,ON
T1C0.03500
T2C0.03917
T3C0.04000
%
T1
X5.02000Y1.92000
Y1.82000
Y2.22000
Y2.02000
Y2.12000
Y2.32000
Y2.42000
X4.72000Y1.92000
Y1.82000
Y2.02000
Y2.22000
Y2.12000
Y2.32000
Y2.42000
X4.02000Y1.90000
Y2.40000
X3.70000Y1.74000
Y1.40000
X4.93000Y1.47000
T2
X3.70000Y1.64000
Y1.30000
X4.83000Y1.47000
T3
X4.42000Y1.56000
X4.32000
X4.37000Y1.61000
M30
