M48
INCH,TZ
VER,1
FMAT,2
DETECT,ON
ATC,ON
T1C0.03500
T2C0.07874
T3C0.04724
T4C0.03917
T5C0.03333
T6C0.04667
%
T1
X5.18884Y1.58000
X5.28884
X0.38000Y1.86000
X4.06000Y2.52000
X4.39000Y2.55000
X4.89000
X4.04000Y1.40000
X4.62000Y0.84000
Y1.04000
X4.39000Y1.41000
X4.89000
X4.59764Y2.17917
Y1.97917
X5.16000Y2.54000
X5.26000
X6.04000Y1.85989
Y1.75989
T2
X2.28000Y2.04000
X2.67370
X2.26000Y3.06000
X2.65370
T3
X1.30000Y2.24000
X1.70000
X1.10000Y1.38000
X0.70000
Y2.22000
X1.10000
X1.32000Y1.38000
X1.72000
T4
X0.38000Y1.76000
X6.04000Y1.95989
T5
X4.06000Y2.22000
X4.04000Y1.10000
T6
X3.48000Y2.54000
X3.38000
X3.58000
X3.38000Y1.60000
X3.48000
X3.58000
M30
